<?xml version="1.0" standalone="no"?>
<!DOCTYPE svg PUBLIC "-//W3C//DTD SVG 20010904//EN"
 "http://www.w3.org/TR/2001/REC-SVG-20010904/DTD/svg10.dtd">
<svg version="1.0" xmlns="http://www.w3.org/2000/svg"
 width="353.000000pt" height="732.000000pt" viewBox="0 0 353.000000 732.000000"
 preserveAspectRatio="xMidYMid meet">
<metadata>
Created by potrace 1.16, written by Peter Selinger 2001-2019
</metadata>
<g transform="translate(0.000000,732.000000) scale(0.100000,-0.100000)"
fill="#000000" stroke="none">
<path d="M0 3660 l0 -3660 1765 0 1765 0 0 3660 0 3660 -1765 0 -1765 0 0
-3660z m1634 1704 c20 -48 39 -97 42 -110 9 -37 -14 -29 -33 11 -15 32 -20 35
-59 35 -40 0 -43 -2 -54 -35 -6 -19 -18 -35 -26 -35 -18 0 -19 -2 16 88 16 42
34 89 39 105 18 47 37 32 75 -59z m-574 6 c46 -46 11 -140 -52 -140 -41 0 -68
32 -68 80 0 49 27 80 70 80 17 0 39 -9 50 -20z m164 4 c11 -11 16 -35 16 -80
0 -58 -9 -79 -24 -55 -4 5 -19 4 -36 -2 -33 -12 -55 -5 -74 26 -15 24 16 53
65 61 31 5 40 10 37 24 -4 23 -56 29 -64 8 -7 -17 -34 -22 -34 -7 0 20 33 41
65 41 18 0 41 -7 49 -16z m842 -5 c12 -13 19 -35 19 -61 0 -98 -126 -105 -141
-8 -12 73 74 122 122 69z m-504 -356 c43 -38 49 -190 11 -241 -41 -55 -119
-49 -149 11 -20 37 -22 154 -4 197 24 57 97 74 142 33z m230 0 c43 -38 49
-190 11 -241 -26 -35 -66 -47 -104 -32 -44 19 -63 62 -63 145 0 109 38 161
108 150 16 -3 38 -13 48 -22z m326 11 c36 -25 52 -67 52 -141 0 -50 -5 -77
-20 -101 -35 -57 -96 -64 -142 -15 -19 20 -24 37 -26 103 -3 57 0 87 13 113
25 53 79 72 123 41z m231 0 c50 -36 69 -163 33 -234 -35 -72 -123 -75 -156 -6
-20 42 -21 171 -2 205 26 47 84 63 125 35z m243 -11 c43 -38 49 -190 11 -241
-41 -55 -119 -49 -149 11 -20 37 -22 154 -4 197 24 57 97 74 142 33z m-1672 1
c0 -9 -9 -18 -20 -21 -11 -3 -20 -12 -20 -19 0 -8 9 -14 20 -14 25 0 27 -30 2
-37 -10 -2 -22 -14 -27 -26 -6 -12 -25 -28 -42 -36 l-33 -14 46 -54 46 -53
-34 0 c-28 1 -40 10 -78 56 -59 71 -63 94 -18 94 19 0 43 7 54 15 17 13 14 14
-38 15 -32 0 -58 2 -58 4 0 27 16 36 62 36 44 0 49 2 38 15 -8 9 -30 15 -56
15 -47 0 -47 0 -38 24 9 24 194 24 194 0z m538 -1046 c-3 -8 -28 -14 -66 -16
-61 -3 -62 -3 -62 -32 0 -30 0 -30 60 -30 33 0 60 -4 60 -10 0 -6 -27 -10 -60
-10 l-60 0 0 -40 0 -40 65 0 c37 0 65 -4 65 -10 0 -6 -33 -10 -80 -10 l-80 0
0 105 0 105 81 0 c60 0 80 -3 77 -12z m111 -70 c14 -42 28 -79 32 -82 3 -3 17
33 33 79 22 68 31 85 47 85 18 0 19 -8 19 -105 0 -87 -3 -105 -15 -105 -12 0
-15 16 -16 78 l-1 77 -26 -77 c-18 -54 -31 -78 -42 -78 -11 0 -24 24 -42 78
l-26 77 -1 -77 c-1 -62 -4 -78 -16 -78 -12 0 -15 18 -15 106 0 102 1 105 22
102 17 -2 27 -19 47 -80z m861 47 c0 -32 2 -35 19 -25 45 23 85 -17 83 -83 -1
-47 -27 -67 -83 -65 l-49 1 0 103 c0 86 3 104 15 104 11 0 15 -11 15 -35z
m-1527 -43 c22 -20 23 -89 0 -114 -10 -11 -30 -18 -54 -18 -44 0 -69 27 -69
73 0 75 68 108 123 59z m215 -349 c-2 -10 -13 -19 -25 -21 -27 -4 -20 -32 8
-32 25 0 24 -30 -1 -37 -11 -3 -20 -10 -20 -16 0 -18 -42 -57 -62 -57 -25 0
-23 -5 22 -59 22 -26 40 -50 40 -54 0 -4 -11 -7 -24 -7 -30 0 -141 121 -133
144 4 9 23 16 48 18 63 5 63 28 0 28 -28 0 -51 2 -51 4 0 26 16 36 57 36 27 0
42 4 38 10 -3 6 -26 10 -51 10 -44 0 -49 5 -38 34 5 13 24 16 101 16 85 0 94
-2 91 -17z m552 -3 c0 -18 -7 -20 -60 -20 -52 0 -60 -2 -60 -19 0 -11 -3 -26
-6 -34 -4 -13 2 -14 34 -10 50 7 80 -9 98 -52 29 -71 -20 -145 -95 -145 -60 0
-120 67 -75 84 22 8 24 8 24 -6 0 -19 32 -48 53 -48 34 0 57 29 57 71 0 31 -5
42 -26 56 -25 16 -28 16 -56 0 -60 -35 -65 -26 -47 80 l11 63 74 0 c67 0 74
-2 74 -20z m313 0 c53 -42 57 -202 7 -255 -30 -32 -87 -34 -118 -5 -57 54 -54
221 6 266 25 20 76 17 105 -6z m218 10 c32 -18 51 -67 51 -139 0 -106 -30
-151 -100 -151 -72 0 -110 97 -86 219 13 66 79 100 135 71z m230 0 c33 -18 49
-64 49 -140 0 -103 -30 -150 -95 -150 -14 0 -35 5 -47 11 -63 34 -65 241 -1
278 23 13 69 14 94 1z m441 -1012 c80 -37 152 -107 191 -187 30 -61 32 -72 32
-171 0 -97 -2 -110 -31 -170 -35 -74 -91 -136 -158 -175 -96 -56 -70 -55
-1116 -55 -1047 0 -1031 -1 -1125 55 -64 37 -125 105 -159 175 -29 60 -31 73
-31 170 0 94 3 111 27 160 51 104 131 177 231 211 49 17 111 18 1067 16 l1015
-2 57 -27z"/>
<path d="M1460 4981 c-5 -11 -10 -55 -10 -99 0 -85 14 -112 57 -112 37 0 48
27 48 115 0 55 -5 87 -14 98 -19 23 -68 22 -81 -2z"/>
<path d="M1688 4978 c-6 -13 -12 -54 -12 -93 0 -86 14 -115 54 -115 37 0 50
24 57 99 7 79 -15 131 -56 131 -21 0 -34 -7 -43 -22z"/>
<path d="M2036 4978 c-11 -15 -16 -45 -16 -93 0 -84 17 -118 58 -113 36 4 52
39 52 113 0 33 -6 71 -13 85 -17 34 -60 39 -81 8z"/>
<path d="M2262 4975 c-18 -39 -15 -156 4 -183 21 -31 64 -26 81 8 16 32 16
138 0 170 -18 37 -69 40 -85 5z"/>
<path d="M2490 4981 c-5 -11 -10 -55 -10 -99 0 -85 14 -112 57 -112 37 0 48
27 48 115 0 55 -5 87 -14 98 -19 23 -68 22 -81 -2z"/>
<path d="M1894 3519 c-15 -17 -19 -36 -19 -99 0 -63 4 -82 19 -99 47 -52 89
-6 89 99 0 105 -42 151 -89 99z"/>
<path d="M2133 3532 c-31 -20 -44 -128 -22 -191 15 -42 55 -53 81 -21 27 34
26 172 -2 200 -21 21 -37 25 -57 12z"/>
<path d="M2364 3532 c-23 -15 -34 -52 -34 -112 0 -103 41 -149 90 -100 17 17
20 33 20 100 0 67 -3 83 -20 100 -21 21 -38 25 -56 12z"/>
<path d="M1832 2247 c-27 -29 -29 -86 -4 -117 13 -16 29 -22 57 -22 47 0 75
28 75 77 0 74 -80 113 -128 62z"/>
</g>
</svg>
